<svg xmlns="http://www.w3.org/2000/svg" viewBox="0 0 68 58" width="1496" height="1276">
<rect x="0.1" y="0.10" width="67.80" height="25.80" fill="#fafafa" stroke="#ccc" stroke-width="0.1"/>
<text x="1" y="1.50" font-size="1.3" font-family="sans-serif" font-weight="bold">Knuckle.FULL  ·  no ramp — knuckle rests on bed</text>
<g>
<line x1="0" y1="23.00" x2="26" y2="23.00" stroke="#444" stroke-width="0.3"/>
<rect x="4.00" y="3.00" width="14" height="20" fill="#e8e8e8" stroke="#444" stroke-width="0.3"/>
<line x1="4.00" y1="13.00" x2="18.00" y2="13.00" stroke="#888" stroke-width="0.2" stroke-dasharray="0.5,0.4"/>
<path d="M 18.00,23.00 A 10.00,10.00 0 0 1 18.00,3.00 Z" fill="rgba(220,170,70,0.55)" stroke="#3a2a00" stroke-width="0.3"/>
<circle cx="18.00" cy="13.00" r="1.80" fill="#222"/>
<text x="1" y="25.00" font-size="1.0" font-family="sans-serif" fill="#666">closed (end view)</text>
</g>
<g>
<line x1="28" y1="23.00" x2="68" y2="23.00" stroke="#444" stroke-width="0.3"/>
<line x1="29" y1="23.00" x2="28.30" y2="23.90" stroke="#999" stroke-width="0.1"/>
<line x1="30" y1="23.00" x2="29.30" y2="23.90" stroke="#999" stroke-width="0.1"/>
<line x1="31" y1="23.00" x2="30.30" y2="23.90" stroke="#999" stroke-width="0.1"/>
<line x1="32" y1="23.00" x2="31.30" y2="23.90" stroke="#999" stroke-width="0.1"/>
<line x1="33" y1="23.00" x2="32.30" y2="23.90" stroke="#999" stroke-width="0.1"/>
<line x1="34" y1="23.00" x2="33.30" y2="23.90" stroke="#999" stroke-width="0.1"/>
<line x1="35" y1="23.00" x2="34.30" y2="23.90" stroke="#999" stroke-width="0.1"/>
<line x1="36" y1="23.00" x2="35.30" y2="23.90" stroke="#999" stroke-width="0.1"/>
<line x1="37" y1="23.00" x2="36.30" y2="23.90" stroke="#999" stroke-width="0.1"/>
<line x1="38" y1="23.00" x2="37.30" y2="23.90" stroke="#999" stroke-width="0.1"/>
<line x1="39" y1="23.00" x2="38.30" y2="23.90" stroke="#999" stroke-width="0.1"/>
<line x1="40" y1="23.00" x2="39.30" y2="23.90" stroke="#999" stroke-width="0.1"/>
<line x1="41" y1="23.00" x2="40.30" y2="23.90" stroke="#999" stroke-width="0.1"/>
<line x1="42" y1="23.00" x2="41.30" y2="23.90" stroke="#999" stroke-width="0.1"/>
<line x1="43" y1="23.00" x2="42.30" y2="23.90" stroke="#999" stroke-width="0.1"/>
<line x1="44" y1="23.00" x2="43.30" y2="23.90" stroke="#999" stroke-width="0.1"/>
<line x1="45" y1="23.00" x2="44.30" y2="23.90" stroke="#999" stroke-width="0.1"/>
<line x1="46" y1="23.00" x2="45.30" y2="23.90" stroke="#999" stroke-width="0.1"/>
<line x1="47" y1="23.00" x2="46.30" y2="23.90" stroke="#999" stroke-width="0.1"/>
<line x1="48" y1="23.00" x2="47.30" y2="23.90" stroke="#999" stroke-width="0.1"/>
<line x1="49" y1="23.00" x2="48.30" y2="23.90" stroke="#999" stroke-width="0.1"/>
<line x1="50" y1="23.00" x2="49.30" y2="23.90" stroke="#999" stroke-width="0.1"/>
<line x1="51" y1="23.00" x2="50.30" y2="23.90" stroke="#999" stroke-width="0.1"/>
<line x1="52" y1="23.00" x2="51.30" y2="23.90" stroke="#999" stroke-width="0.1"/>
<line x1="53" y1="23.00" x2="52.30" y2="23.90" stroke="#999" stroke-width="0.1"/>
<line x1="54" y1="23.00" x2="53.30" y2="23.90" stroke="#999" stroke-width="0.1"/>
<line x1="55" y1="23.00" x2="54.30" y2="23.90" stroke="#999" stroke-width="0.1"/>
<line x1="56" y1="23.00" x2="55.30" y2="23.90" stroke="#999" stroke-width="0.1"/>
<line x1="57" y1="23.00" x2="56.30" y2="23.90" stroke="#999" stroke-width="0.1"/>
<line x1="58" y1="23.00" x2="57.30" y2="23.90" stroke="#999" stroke-width="0.1"/>
<line x1="59" y1="23.00" x2="58.30" y2="23.90" stroke="#999" stroke-width="0.1"/>
<line x1="60" y1="23.00" x2="59.30" y2="23.90" stroke="#999" stroke-width="0.1"/>
<line x1="61" y1="23.00" x2="60.30" y2="23.90" stroke="#999" stroke-width="0.1"/>
<line x1="62" y1="23.00" x2="61.30" y2="23.90" stroke="#999" stroke-width="0.1"/>
<line x1="63" y1="23.00" x2="62.30" y2="23.90" stroke="#999" stroke-width="0.1"/>
<line x1="64" y1="23.00" x2="63.30" y2="23.90" stroke="#999" stroke-width="0.1"/>
<line x1="65" y1="23.00" x2="64.30" y2="23.90" stroke="#999" stroke-width="0.1"/>
<line x1="66" y1="23.00" x2="65.30" y2="23.90" stroke="#999" stroke-width="0.1"/>
<rect x="59.00" y="13.00" width="2" height="10" fill="#cdcdcd" stroke="#555" stroke-width="0.18"/>
<rect x="35.00" y="13.00" width="2" height="10" fill="#cdcdcd" stroke="#555" stroke-width="0.18"/>
<polygon points="58.00,13.00 59.00,13.00 59.00,23.00 48.00,23.00" fill="rgba(70,140,220,0.45)" stroke="#1a4a8a" stroke-width="0.22"/>
<polygon points="38.00,13.00 37.00,13.00 37.00,23.00 48.00,23.00" fill="rgba(70,140,220,0.45)" stroke="#1a4a8a" stroke-width="0.22"/>
<circle cx="48.00" cy="13.00" r="10.00" fill="rgba(220,170,70,0.55)" stroke="#3a2a00" stroke-width="0.3"/>
<circle cx="48.00" cy="13.00" r="2.20" fill="#222"/>
<text x="29" y="25.00" font-size="1.0" font-family="sans-serif" fill="#666">flat-open (cross-section)</text>
</g>
<rect x="0.1" y="29.10" width="67.80" height="25.80" fill="#fafafa" stroke="#ccc" stroke-width="0.1"/>
<text x="1" y="30.50" font-size="1.3" font-family="sans-serif" font-weight="bold">Knuckle.HALF  ·  45°-shallow ramp converges at disc bottom</text>
<g>
<line x1="0" y1="52.00" x2="26" y2="52.00" stroke="#444" stroke-width="0.3"/>
<rect x="4.00" y="32.00" width="14" height="20" fill="#e8e8e8" stroke="#444" stroke-width="0.3"/>
<line x1="4.00" y1="42.00" x2="18.00" y2="42.00" stroke="#888" stroke-width="0.2" stroke-dasharray="0.5,0.4"/>
<path d="M 18.00,47.00 A 5.00,5.00 0 0 1 18.00,37.00 Z" fill="rgba(220,170,70,0.55)" stroke="#3a2a00" stroke-width="0.3"/>
<circle cx="18.00" cy="42.00" r="0.90" fill="#222"/>
<text x="1" y="54.00" font-size="1.0" font-family="sans-serif" fill="#666">closed (end view)</text>
</g>
<g>
<line x1="28" y1="52.00" x2="68" y2="52.00" stroke="#444" stroke-width="0.3"/>
<line x1="29" y1="52.00" x2="28.30" y2="52.90" stroke="#999" stroke-width="0.1"/>
<line x1="30" y1="52.00" x2="29.30" y2="52.90" stroke="#999" stroke-width="0.1"/>
<line x1="31" y1="52.00" x2="30.30" y2="52.90" stroke="#999" stroke-width="0.1"/>
<line x1="32" y1="52.00" x2="31.30" y2="52.90" stroke="#999" stroke-width="0.1"/>
<line x1="33" y1="52.00" x2="32.30" y2="52.90" stroke="#999" stroke-width="0.1"/>
<line x1="34" y1="52.00" x2="33.30" y2="52.90" stroke="#999" stroke-width="0.1"/>
<line x1="35" y1="52.00" x2="34.30" y2="52.90" stroke="#999" stroke-width="0.1"/>
<line x1="36" y1="52.00" x2="35.30" y2="52.90" stroke="#999" stroke-width="0.1"/>
<line x1="37" y1="52.00" x2="36.30" y2="52.90" stroke="#999" stroke-width="0.1"/>
<line x1="38" y1="52.00" x2="37.30" y2="52.90" stroke="#999" stroke-width="0.1"/>
<line x1="39" y1="52.00" x2="38.30" y2="52.90" stroke="#999" stroke-width="0.1"/>
<line x1="40" y1="52.00" x2="39.30" y2="52.90" stroke="#999" stroke-width="0.1"/>
<line x1="41" y1="52.00" x2="40.30" y2="52.90" stroke="#999" stroke-width="0.1"/>
<line x1="42" y1="52.00" x2="41.30" y2="52.90" stroke="#999" stroke-width="0.1"/>
<line x1="43" y1="52.00" x2="42.30" y2="52.90" stroke="#999" stroke-width="0.1"/>
<line x1="44" y1="52.00" x2="43.30" y2="52.90" stroke="#999" stroke-width="0.1"/>
<line x1="45" y1="52.00" x2="44.30" y2="52.90" stroke="#999" stroke-width="0.1"/>
<line x1="46" y1="52.00" x2="45.30" y2="52.90" stroke="#999" stroke-width="0.1"/>
<line x1="47" y1="52.00" x2="46.30" y2="52.90" stroke="#999" stroke-width="0.1"/>
<line x1="48" y1="52.00" x2="47.30" y2="52.90" stroke="#999" stroke-width="0.1"/>
<line x1="49" y1="52.00" x2="48.30" y2="52.90" stroke="#999" stroke-width="0.1"/>
<line x1="50" y1="52.00" x2="49.30" y2="52.90" stroke="#999" stroke-width="0.1"/>
<line x1="51" y1="52.00" x2="50.30" y2="52.90" stroke="#999" stroke-width="0.1"/>
<line x1="52" y1="52.00" x2="51.30" y2="52.90" stroke="#999" stroke-width="0.1"/>
<line x1="53" y1="52.00" x2="52.30" y2="52.90" stroke="#999" stroke-width="0.1"/>
<line x1="54" y1="52.00" x2="53.30" y2="52.90" stroke="#999" stroke-width="0.1"/>
<line x1="55" y1="52.00" x2="54.30" y2="52.90" stroke="#999" stroke-width="0.1"/>
<line x1="56" y1="52.00" x2="55.30" y2="52.90" stroke="#999" stroke-width="0.1"/>
<line x1="57" y1="52.00" x2="56.30" y2="52.90" stroke="#999" stroke-width="0.1"/>
<line x1="58" y1="52.00" x2="57.30" y2="52.90" stroke="#999" stroke-width="0.1"/>
<line x1="59" y1="52.00" x2="58.30" y2="52.90" stroke="#999" stroke-width="0.1"/>
<line x1="60" y1="52.00" x2="59.30" y2="52.90" stroke="#999" stroke-width="0.1"/>
<line x1="61" y1="52.00" x2="60.30" y2="52.90" stroke="#999" stroke-width="0.1"/>
<line x1="62" y1="52.00" x2="61.30" y2="52.90" stroke="#999" stroke-width="0.1"/>
<line x1="63" y1="52.00" x2="62.30" y2="52.90" stroke="#999" stroke-width="0.1"/>
<line x1="64" y1="52.00" x2="63.30" y2="52.90" stroke="#999" stroke-width="0.1"/>
<line x1="65" y1="52.00" x2="64.30" y2="52.90" stroke="#999" stroke-width="0.1"/>
<line x1="66" y1="52.00" x2="65.30" y2="52.90" stroke="#999" stroke-width="0.1"/>
<rect x="54.00" y="42.00" width="2" height="10" fill="#cdcdcd" stroke="#555" stroke-width="0.18"/>
<rect x="40.00" y="42.00" width="2" height="10" fill="#cdcdcd" stroke="#555" stroke-width="0.18"/>
<polygon points="53.00,42.00 54.00,42.00 54.00,52.00 48.00,47.00" fill="rgba(70,140,220,0.45)" stroke="#1a4a8a" stroke-width="0.22"/>
<polygon points="43.00,42.00 42.00,42.00 42.00,52.00 48.00,47.00" fill="rgba(70,140,220,0.45)" stroke="#1a4a8a" stroke-width="0.22"/>
<circle cx="48.00" cy="42.00" r="5.00" fill="rgba(220,170,70,0.55)" stroke="#3a2a00" stroke-width="0.3"/>
<circle cx="48.00" cy="42.00" r="1.10" fill="#222"/>
<text x="29" y="54.00" font-size="1.0" font-family="sans-serif" fill="#666">flat-open (cross-section)</text>
</g>
</svg>