<svg xmlns="http://www.w3.org/2000/svg" viewBox="0 0 50 60" width="1100" height="1320">
<g>
<rect x="0.1" y="0.10" width="49.80" height="27.80" fill="#fafafa" stroke="#ccc" stroke-width="0.1"/>
<line x1="1" y1="25.00" x2="49" y2="25.00" stroke="#444" stroke-width="0.3"/>
<line x1="1" y1="25.00" x2="0.30" y2="25.90" stroke="#999" stroke-width="0.1"/>
<line x1="2" y1="25.00" x2="1.30" y2="25.90" stroke="#999" stroke-width="0.1"/>
<line x1="3" y1="25.00" x2="2.30" y2="25.90" stroke="#999" stroke-width="0.1"/>
<line x1="4" y1="25.00" x2="3.30" y2="25.90" stroke="#999" stroke-width="0.1"/>
<line x1="5" y1="25.00" x2="4.30" y2="25.90" stroke="#999" stroke-width="0.1"/>
<line x1="6" y1="25.00" x2="5.30" y2="25.90" stroke="#999" stroke-width="0.1"/>
<line x1="7" y1="25.00" x2="6.30" y2="25.90" stroke="#999" stroke-width="0.1"/>
<line x1="8" y1="25.00" x2="7.30" y2="25.90" stroke="#999" stroke-width="0.1"/>
<line x1="9" y1="25.00" x2="8.30" y2="25.90" stroke="#999" stroke-width="0.1"/>
<line x1="10" y1="25.00" x2="9.30" y2="25.90" stroke="#999" stroke-width="0.1"/>
<line x1="11" y1="25.00" x2="10.30" y2="25.90" stroke="#999" stroke-width="0.1"/>
<line x1="12" y1="25.00" x2="11.30" y2="25.90" stroke="#999" stroke-width="0.1"/>
<line x1="13" y1="25.00" x2="12.30" y2="25.90" stroke="#999" stroke-width="0.1"/>
<line x1="14" y1="25.00" x2="13.30" y2="25.90" stroke="#999" stroke-width="0.1"/>
<line x1="15" y1="25.00" x2="14.30" y2="25.90" stroke="#999" stroke-width="0.1"/>
<line x1="16" y1="25.00" x2="15.30" y2="25.90" stroke="#999" stroke-width="0.1"/>
<line x1="17" y1="25.00" x2="16.30" y2="25.90" stroke="#999" stroke-width="0.1"/>
<line x1="18" y1="25.00" x2="17.30" y2="25.90" stroke="#999" stroke-width="0.1"/>
<line x1="19" y1="25.00" x2="18.30" y2="25.90" stroke="#999" stroke-width="0.1"/>
<line x1="20" y1="25.00" x2="19.30" y2="25.90" stroke="#999" stroke-width="0.1"/>
<line x1="21" y1="25.00" x2="20.30" y2="25.90" stroke="#999" stroke-width="0.1"/>
<line x1="22" y1="25.00" x2="21.30" y2="25.90" stroke="#999" stroke-width="0.1"/>
<line x1="23" y1="25.00" x2="22.30" y2="25.90" stroke="#999" stroke-width="0.1"/>
<line x1="24" y1="25.00" x2="23.30" y2="25.90" stroke="#999" stroke-width="0.1"/>
<line x1="25" y1="25.00" x2="24.30" y2="25.90" stroke="#999" stroke-width="0.1"/>
<line x1="26" y1="25.00" x2="25.30" y2="25.90" stroke="#999" stroke-width="0.1"/>
<line x1="27" y1="25.00" x2="26.30" y2="25.90" stroke="#999" stroke-width="0.1"/>
<line x1="28" y1="25.00" x2="27.30" y2="25.90" stroke="#999" stroke-width="0.1"/>
<line x1="29" y1="25.00" x2="28.30" y2="25.90" stroke="#999" stroke-width="0.1"/>
<line x1="30" y1="25.00" x2="29.30" y2="25.90" stroke="#999" stroke-width="0.1"/>
<line x1="31" y1="25.00" x2="30.30" y2="25.90" stroke="#999" stroke-width="0.1"/>
<line x1="32" y1="25.00" x2="31.30" y2="25.90" stroke="#999" stroke-width="0.1"/>
<line x1="33" y1="25.00" x2="32.30" y2="25.90" stroke="#999" stroke-width="0.1"/>
<line x1="34" y1="25.00" x2="33.30" y2="25.90" stroke="#999" stroke-width="0.1"/>
<line x1="35" y1="25.00" x2="34.30" y2="25.90" stroke="#999" stroke-width="0.1"/>
<line x1="36" y1="25.00" x2="35.30" y2="25.90" stroke="#999" stroke-width="0.1"/>
<line x1="37" y1="25.00" x2="36.30" y2="25.90" stroke="#999" stroke-width="0.1"/>
<line x1="38" y1="25.00" x2="37.30" y2="25.90" stroke="#999" stroke-width="0.1"/>
<line x1="39" y1="25.00" x2="38.30" y2="25.90" stroke="#999" stroke-width="0.1"/>
<line x1="40" y1="25.00" x2="39.30" y2="25.90" stroke="#999" stroke-width="0.1"/>
<line x1="41" y1="25.00" x2="40.30" y2="25.90" stroke="#999" stroke-width="0.1"/>
<line x1="42" y1="25.00" x2="41.30" y2="25.90" stroke="#999" stroke-width="0.1"/>
<line x1="43" y1="25.00" x2="42.30" y2="25.90" stroke="#999" stroke-width="0.1"/>
<line x1="44" y1="25.00" x2="43.30" y2="25.90" stroke="#999" stroke-width="0.1"/>
<line x1="45" y1="25.00" x2="44.30" y2="25.90" stroke="#999" stroke-width="0.1"/>
<line x1="46" y1="25.00" x2="45.30" y2="25.90" stroke="#999" stroke-width="0.1"/>
<line x1="47" y1="25.00" x2="46.30" y2="25.90" stroke="#999" stroke-width="0.1"/>
<line x1="48" y1="25.00" x2="47.30" y2="25.90" stroke="#999" stroke-width="0.1"/>
<rect x="36.00" y="15.00" width="2" height="10" fill="#cdcdcd" stroke="#555" stroke-width="0.18"/>
<rect x="12.00" y="15.00" width="2" height="10" fill="#cdcdcd" stroke="#555" stroke-width="0.18"/>
<polygon points="35.00,15.00 36.00,15.00 36.00,25.00 25.00,25.00" fill="rgba(70,140,220,0.45)" stroke="#1a4a8a" stroke-width="0.22"/>
<polygon points="15.00,15.00 14.00,15.00 14.00,25.00 25.00,25.00" fill="rgba(70,140,220,0.45)" stroke="#1a4a8a" stroke-width="0.22"/>
<circle cx="25.00" cy="15.00" r="10.00" fill="rgba(220,170,70,0.55)" stroke="#3a2a00" stroke-width="0.3"/>
<circle cx="25.00" cy="15.00" r="2.20" fill="#222"/>
<line x1="14.00" y1="27.50" x2="36.00" y2="27.50" stroke="#a40" stroke-width="0.3"/>
<line x1="14.00" y1="26.90" x2="14.00" y2="28.10" stroke="#a40" stroke-width="0.3"/>
<line x1="36.00" y1="26.90" x2="36.00" y2="28.10" stroke="#a40" stroke-width="0.3"/>
<text x="25.00" y="29.50" font-size="1.0" font-family="sans-serif" fill="#a40" text-anchor="middle">gap = 22.0mm</text>
<text x="1" y="1.60" font-size="1.4" font-family="sans-serif" font-weight="bold">Knuckle.FULL</text>
<text x="1" y="3.10" font-size="1.0" font-family="sans-serif" fill="#555">Po = 20mm   W = 11.0mm   gap = 22.0mm   (no ramp, knuckle rests on bed)</text>
</g>
<g>
<rect x="0.1" y="30.10" width="49.80" height="27.80" fill="#fafafa" stroke="#ccc" stroke-width="0.1"/>
<line x1="1" y1="55.00" x2="49" y2="55.00" stroke="#444" stroke-width="0.3"/>
<line x1="1" y1="55.00" x2="0.30" y2="55.90" stroke="#999" stroke-width="0.1"/>
<line x1="2" y1="55.00" x2="1.30" y2="55.90" stroke="#999" stroke-width="0.1"/>
<line x1="3" y1="55.00" x2="2.30" y2="55.90" stroke="#999" stroke-width="0.1"/>
<line x1="4" y1="55.00" x2="3.30" y2="55.90" stroke="#999" stroke-width="0.1"/>
<line x1="5" y1="55.00" x2="4.30" y2="55.90" stroke="#999" stroke-width="0.1"/>
<line x1="6" y1="55.00" x2="5.30" y2="55.90" stroke="#999" stroke-width="0.1"/>
<line x1="7" y1="55.00" x2="6.30" y2="55.90" stroke="#999" stroke-width="0.1"/>
<line x1="8" y1="55.00" x2="7.30" y2="55.90" stroke="#999" stroke-width="0.1"/>
<line x1="9" y1="55.00" x2="8.30" y2="55.90" stroke="#999" stroke-width="0.1"/>
<line x1="10" y1="55.00" x2="9.30" y2="55.90" stroke="#999" stroke-width="0.1"/>
<line x1="11" y1="55.00" x2="10.30" y2="55.90" stroke="#999" stroke-width="0.1"/>
<line x1="12" y1="55.00" x2="11.30" y2="55.90" stroke="#999" stroke-width="0.1"/>
<line x1="13" y1="55.00" x2="12.30" y2="55.90" stroke="#999" stroke-width="0.1"/>
<line x1="14" y1="55.00" x2="13.30" y2="55.90" stroke="#999" stroke-width="0.1"/>
<line x1="15" y1="55.00" x2="14.30" y2="55.90" stroke="#999" stroke-width="0.1"/>
<line x1="16" y1="55.00" x2="15.30" y2="55.90" stroke="#999" stroke-width="0.1"/>
<line x1="17" y1="55.00" x2="16.30" y2="55.90" stroke="#999" stroke-width="0.1"/>
<line x1="18" y1="55.00" x2="17.30" y2="55.90" stroke="#999" stroke-width="0.1"/>
<line x1="19" y1="55.00" x2="18.30" y2="55.90" stroke="#999" stroke-width="0.1"/>
<line x1="20" y1="55.00" x2="19.30" y2="55.90" stroke="#999" stroke-width="0.1"/>
<line x1="21" y1="55.00" x2="20.30" y2="55.90" stroke="#999" stroke-width="0.1"/>
<line x1="22" y1="55.00" x2="21.30" y2="55.90" stroke="#999" stroke-width="0.1"/>
<line x1="23" y1="55.00" x2="22.30" y2="55.90" stroke="#999" stroke-width="0.1"/>
<line x1="24" y1="55.00" x2="23.30" y2="55.90" stroke="#999" stroke-width="0.1"/>
<line x1="25" y1="55.00" x2="24.30" y2="55.90" stroke="#999" stroke-width="0.1"/>
<line x1="26" y1="55.00" x2="25.30" y2="55.90" stroke="#999" stroke-width="0.1"/>
<line x1="27" y1="55.00" x2="26.30" y2="55.90" stroke="#999" stroke-width="0.1"/>
<line x1="28" y1="55.00" x2="27.30" y2="55.90" stroke="#999" stroke-width="0.1"/>
<line x1="29" y1="55.00" x2="28.30" y2="55.90" stroke="#999" stroke-width="0.1"/>
<line x1="30" y1="55.00" x2="29.30" y2="55.90" stroke="#999" stroke-width="0.1"/>
<line x1="31" y1="55.00" x2="30.30" y2="55.90" stroke="#999" stroke-width="0.1"/>
<line x1="32" y1="55.00" x2="31.30" y2="55.90" stroke="#999" stroke-width="0.1"/>
<line x1="33" y1="55.00" x2="32.30" y2="55.90" stroke="#999" stroke-width="0.1"/>
<line x1="34" y1="55.00" x2="33.30" y2="55.90" stroke="#999" stroke-width="0.1"/>
<line x1="35" y1="55.00" x2="34.30" y2="55.90" stroke="#999" stroke-width="0.1"/>
<line x1="36" y1="55.00" x2="35.30" y2="55.90" stroke="#999" stroke-width="0.1"/>
<line x1="37" y1="55.00" x2="36.30" y2="55.90" stroke="#999" stroke-width="0.1"/>
<line x1="38" y1="55.00" x2="37.30" y2="55.90" stroke="#999" stroke-width="0.1"/>
<line x1="39" y1="55.00" x2="38.30" y2="55.90" stroke="#999" stroke-width="0.1"/>
<line x1="40" y1="55.00" x2="39.30" y2="55.90" stroke="#999" stroke-width="0.1"/>
<line x1="41" y1="55.00" x2="40.30" y2="55.90" stroke="#999" stroke-width="0.1"/>
<line x1="42" y1="55.00" x2="41.30" y2="55.90" stroke="#999" stroke-width="0.1"/>
<line x1="43" y1="55.00" x2="42.30" y2="55.90" stroke="#999" stroke-width="0.1"/>
<line x1="44" y1="55.00" x2="43.30" y2="55.90" stroke="#999" stroke-width="0.1"/>
<line x1="45" y1="55.00" x2="44.30" y2="55.90" stroke="#999" stroke-width="0.1"/>
<line x1="46" y1="55.00" x2="45.30" y2="55.90" stroke="#999" stroke-width="0.1"/>
<line x1="47" y1="55.00" x2="46.30" y2="55.90" stroke="#999" stroke-width="0.1"/>
<line x1="48" y1="55.00" x2="47.30" y2="55.90" stroke="#999" stroke-width="0.1"/>
<rect x="31.00" y="45.00" width="2" height="10" fill="#cdcdcd" stroke="#555" stroke-width="0.18"/>
<rect x="17.00" y="45.00" width="2" height="10" fill="#cdcdcd" stroke="#555" stroke-width="0.18"/>
<polygon points="30.00,45.00 31.00,45.00 31.00,55.00 25.00,50.00" fill="rgba(70,140,220,0.45)" stroke="#1a4a8a" stroke-width="0.22"/>
<polygon points="20.00,45.00 19.00,45.00 19.00,55.00 25.00,50.00" fill="rgba(70,140,220,0.45)" stroke="#1a4a8a" stroke-width="0.22"/>
<circle cx="25.00" cy="45.00" r="5.00" fill="rgba(220,170,70,0.55)" stroke="#3a2a00" stroke-width="0.3"/>
<circle cx="25.00" cy="45.00" r="1.10" fill="#222"/>
<line x1="19.00" y1="57.50" x2="31.00" y2="57.50" stroke="#a40" stroke-width="0.3"/>
<line x1="19.00" y1="56.90" x2="19.00" y2="58.10" stroke="#a40" stroke-width="0.3"/>
<line x1="31.00" y1="56.90" x2="31.00" y2="58.10" stroke="#a40" stroke-width="0.3"/>
<text x="25.00" y="59.50" font-size="1.0" font-family="sans-serif" fill="#a40" text-anchor="middle">gap = 12.0mm</text>
<text x="26.50" y="53.50" font-size="1.0" font-family="sans-serif" fill="#1a4a8a">40°</text>
<text x="1" y="31.60" font-size="1.4" font-family="sans-serif" font-weight="bold">Knuckle.HALF</text>
<text x="1" y="33.10" font-size="1.0" font-family="sans-serif" fill="#555">Po = 10mm   W = 6.0mm   gap = 12.0mm   ramp = 40°  (self-supporting)</text>
</g>
</svg>
